<?xml version="1.0" standalone="no"?>
<!DOCTYPE svg PUBLIC "-//W3C//DTD SVG 20010904//EN"
 "http://www.w3.org/TR/2001/REC-SVG-20010904/DTD/svg10.dtd">
<svg version="1.0" xmlns="http://www.w3.org/2000/svg"
 width="512.000000pt" height="512.000000pt" viewBox="0 0 512.000000 512.000000"
 preserveAspectRatio="xMidYMid meet">
<metadata>
Created by potrace 1.14, written by Peter Selinger 2001-2017
</metadata>
<g transform="translate(0.000000,512.000000) scale(0.100000,-0.100000)"
fill="#000000" stroke="none">
<path d="M620 5110 c-148 -43 -244 -179 -235 -330 6 -94 40 -153 149 -263 53
-54 95 -101 92 -105 -3 -4 -34 -52 -71 -107 -122 -186 -227 -426 -284 -651
-51 -199 -68 -351 -65 -564 10 -738 379 -1400 1004 -1806 195 -126 478 -246
688 -290 l82 -17 0 -143 0 -143 -212 -3 c-205 -3 -215 -4 -268 -29 -266 -126
-268 -496 -2 -626 l57 -28 825 0 825 0 58 29 c69 35 139 108 169 173 17 37 22
68 22 138 1 80 -2 96 -28 148 -35 68 -107 139 -173 169 -44 20 -68 22 -263 26
l-215 4 1 131 c1 73 2 137 3 142 1 6 38 18 84 28 81 16 258 71 341 105 100 41
279 136 370 196 55 36 104 66 108 66 5 0 49 -41 100 -91 122 -121 166 -143
283 -144 79 0 96 3 140 27 129 68 198 204 173 340 -15 80 -42 123 -144 228
-52 53 -94 99 -94 102 0 2 29 48 65 101 35 53 87 143 115 199 58 118 67 183
36 275 -66 198 -326 268 -483 130 -24 -22 -54 -58 -67 -80 -13 -23 -43 -75
-66 -116 l-42 -73 -63 62 -63 63 43 81 c70 130 122 278 141 401 3 22 10 60 14
85 16 83 5 346 -19 452 -134 598 -608 1032 -1206 1104 -94 12 -249 10 -342 -3
-171 -23 -287 -59 -447 -139 l-110 -55 -58 58 c-32 32 -58 61 -58 65 0 4 49
35 110 69 167 94 224 170 223 304 -1 85 -25 146 -83 209 -57 62 -126 90 -221
91 -71 0 -82 -3 -170 -47 -52 -26 -141 -79 -199 -117 l-105 -69 -101 98 c-117
116 -164 141 -269 145 -38 2 -81 -1 -95 -5z m570 -1254 c0 -2 -22 -49 -50
-104 -75 -151 -121 -303 -145 -477 -8 -53 -8 -276 -1 -312 3 -11 8 -43 12 -70
5 -26 8 -50 9 -53 79 -375 304 -699 627 -903 162 -103 362 -175 561 -203 69
-10 268 -12 327 -4 116 16 146 21 185 31 94 24 207 67 304 116 l103 53 60 -61
60 -62 -48 -30 c-119 -74 -365 -173 -474 -191 -19 -3 -69 -12 -110 -20 -113
-20 -353 -18 -485 5 -608 105 -1106 563 -1264 1164 -59 225 -61 499 -6 740 33
144 118 349 188 456 l31 48 58 -60 c32 -32 58 -61 58 -63z"/>
<path d="M4247 4958 c-8 -13 -27 -57 -42 -98 -14 -41 -30 -84 -35 -95 -5 -11
-12 -31 -15 -44 -5 -17 -26 -32 -74 -53 -161 -72 -181 -82 -186 -98 -10 -33 7
-46 128 -101 l122 -54 46 -124 c53 -143 61 -158 84 -158 20 0 32 24 80 157 21
58 45 112 54 121 9 8 61 35 116 59 167 72 171 90 39 152 -180 85 -163 69 -206
192 -48 138 -59 160 -80 164 -9 2 -23 -7 -31 -20z"/>
<path d="M3104 4868 c-48 -26 -58 -77 -23 -122 47 -60 152 -7 133 68 -11 47
-69 75 -110 54z"/>
<path d="M4628 3608 c-9 -7 -31 -55 -49 -107 l-33 -94 -93 -43 c-123 -57 -123
-70 -3 -123 41 -19 81 -39 88 -46 7 -6 28 -54 46 -106 47 -132 60 -132 110 4
l38 105 84 37 c133 60 133 70 2 135 l-92 45 -33 94 c-37 107 -43 116 -65 99z"/>
<path d="M440 1083 c-40 -13 -78 -34 -92 -50 -124 -141 2 -356 182 -310 107
27 168 148 125 250 -35 83 -139 136 -215 110z"/>
</g>
</svg>
